Patient4_TMGait_0pt5_02_right_08_GRF.mot
version=1
nRows=58
nColumns=19
inDegrees=no
endheader
time	F1x	F1y	F1z	M1x	M1y	M1z	F2x	F2y	F2z	M2x	M2y	M2z	EC1x	EC1y	EC1z	EC2x	EC2y	EC2z
10.46	2.6651	813.6885	76.6704	-307.7452	-59.1825	637.8918	0.51673	7.5896	-3.2555	2.2193	4.0642	6.8305	-0.0592	0.0182	-0.0073	-0.0462	0.0165	0.9585
10.4729	4.0395	802.9136	74.1545	-303.786	-55.8319	627.5912	0.33513	5.8981	-2.1008	1.7578	2.7204	5.3867	-0.0592	0.0182	-0.0073	-0.0462	0.0165	0.9585
10.4859	6.1273	789.5877	71.4708	-298.9306	-52.0867	614.5729	0.18104	4.4595	-1.1515	1.3791	1.5868	4.1597	-0.0592	0.0182	-0.0073	-0.0462	0.0165	0.9585
10.4988	8.7809	774.5989	68.7342	-293.5002	-48.147	599.6416	0.065091	3.3687	-0.44474	1.1043	0.72074	3.2337	-0.0592	0.0182	-0.0073	-0.0462	0.0165	0.9585
10.5117	11.7906	759.1666	66.0765	-287.9419	-44.2226	583.8911	-0.011375	2.6229	0.023609	0.92895	0.1267	2.6031	-0.0592	0.0182	-0.0073	-0.0462	0.0165	0.9585
10.5246	14.9245	744.606	63.6103	-282.741	-40.4924	568.4942	-0.059748	2.1798	0.29543	0.83661	-0.23331	2.2326	-0.0592	0.0182	-0.0073	-0.0462	0.0165	0.9585
10.5376	18.0077	732.0894	61.4312	-278.3356	-37.0858	554.4709	-0.086849	1.952	0.41538	0.79891	-0.4084	2.0431	-0.0592	0.0182	-0.0073	-0.0462	0.0165	0.9585
10.5505	20.9357	722.5117	59.5902	-275.0597	-34.0598	542.5793	-0.10558	1.8407	0.42835	0.785	-0.44994	1.9482	-0.0592	0.0182	-0.0073	-0.0462	0.0165	0.9585
10.5634	23.6576	716.3804	58.1043	-273.1005	-31.4229	533.25	-0.12237	1.7405	0.36781	0.76097	-0.39788	1.8587	-0.0592	0.0182	-0.0073	-0.0462	0.0165	0.9585
10.5764	26.1865	713.7838	56.9541	-272.4866	-29.1351	526.5594	-0.13798	1.529	0.26594	0.6861	-0.29106	1.6653	-0.0592	0.0182	-0.0073	-0.0462	0.0165	0.9585
10.5893	28.5615	714.4475	56.1088	-273.1056	-27.1426	522.3133	-0.16205	1.0799	0.14347	0.51606	-0.15373	1.2566	-0.0592	0.0182	-0.0073	-0.0462	0.0165	0.9585
10.6022	30.8598	717.821	55.5256	-274.7399	-25.3738	520.095	-0.18849	0.26754	0.018741	0.20561	-0.00816	0.51492	-0.0592	0.0182	-0.0073	-0.0462	0.0165	0.9585
10.6151	33.1608	723.2119	55.1696	-277.1124	-23.7657	519.3997	-0.22137	-1.0023	-0.091078	-0.27977	0.12716	-0.63458	-0.0592	0.0182	-0.0073	-0.0462	0.0165	0.9585
10.6281	35.5523	729.8575	55.0074	-279.9167	-22.2621	519.6873	-0.24784	-2.7787	-0.16863	-0.95735	0.22932	-2.2362	-0.0592	0.0182	-0.0073	-0.0462	0.0165	0.9585
10.641	38.0832	737.0025	55.0234	-282.8452	-20.8399	520.4557	-0.26298	-5.0034	-0.1927	-1.8053	0.27348	-4.2476	-0.0592	0.0182	-0.0073	-0.0462	0.0165	0.9585
10.6539	40.7575	743.9374	55.2041	-285.605	-19.497	521.2445	-0.24312	-7.4594	-0.1319	-2.7394	0.22015	-6.4907	-0.0592	0.0182	-0.0073	-0.0462	0.0165	0.9585
10.6669	43.5109	750.0007	55.5547	-287.917	-18.271	521.6496	-0.1557	-9.6879	0.058465	-3.5827	0.017022	-8.5522	-0.0592	0.0182	-0.0073	-0.0462	0.0165	0.9585
10.6798	46.2151	754.5177	56.0716	-289.4987	-17.2124	521.2834	0.043669	-10.9059	0.42937	-4.0332	-0.39406	-9.7198	-0.0592	0.0182	-0.0073	-0.0462	0.0165	0.9585
10.6927	48.695	756.7345	56.7347	-290.046	-16.3804	519.7246	0.41084	-9.9187	1.0326	-3.6334	-1.0742	-8.9061	-0.0592	0.0182	-0.0073	-0.0462	0.0165	0.9585
10.7056	50.7331	755.8051	57.477	-289.2313	-15.818	516.514	0.99129	-5.0737	1.9073	-1.7543	-2.0739	-4.5972	-0.0592	0.0182	-0.0073	-0.0462	0.0165	0.9585
10.7186	52.1487	750.8961	58.1868	-286.7405	-15.5299	511.1708	1.8227	5.6863	3.0546	2.3859	-3.4031	5.0843	-0.0592	0.0182	-0.0073	-0.0462	0.0165	0.9585
10.7315	52.8084	741.3423	58.7094	-282.3311	-15.4697	503.3014	2.8882	24.6454	4.4066	9.65	-4.983	22.2416	-0.0592	0.0182	-0.0073	-0.0462	0.0165	0.9585
10.7444	52.6589	726.6785	58.8847	-275.8493	-15.5594	492.605	4.0662	53.9194	5.7763	20.8334	-6.5844	48.8343	-0.0592	0.0182	-0.0073	-0.0462	0.0165	0.9585
10.7574	51.7199	706.6094	58.5434	-267.2238	-15.6861	478.8588	4.8434	94.9658	6.8533	36.4721	-7.7238	86.2546	-0.0592	0.0182	-0.0073	-0.0462	0.0165	0.9585
10.7703	50.0924	680.9786	57.4977	-256.4572	-15.6908	461.8845	4.079	147.7366	7.1957	56.5188	-7.5693	134.5269	-0.0592	0.0182	-0.0073	-0.0462	0.0165	0.9585
10.7832	47.94	649.7417	55.5638	-243.6097	-15.3871	441.5313	0.29969	209.7938	6.2364	80.0062	-5.0699	191.5263	-0.0592	0.0182	-0.0073	-0.0462	0.0165	0.9585
10.7961	45.4705	613.0767	52.6011	-228.8334	-14.5931	417.7487	-6.6395	276.0954	3.5261	104.98	0.215	252.6869	-0.0592	0.0182	-0.0073	-0.0462	0.0165	0.9585
10.8091	42.9195	571.5583	48.6029	-212.427	-13.1989	390.7187	-15.2036	339.9637	-0.87579	128.9037	7.6171	311.7352	-0.0592	0.0182	-0.0073	-0.0462	0.0165	0.9585
10.822	40.4761	526.1835	43.7584	-194.8201	-11.2277	360.9181	-23.4665	395.5853	-6.3151	149.5931	15.7608	363.1006	-0.0592	0.0182	-0.0073	-0.0462	0.0165	0.9585
10.8349	38.1654	478.0252	38.4355	-176.431	-8.8847	328.9327	-30.0664	440.0189	-11.9583	165.9666	23.3412	403.91	-0.0592	0.0182	-0.0073	-0.0462	0.0165	0.9585
10.8479	35.7807	427.9479	33.0576	-157.5577	-6.5087	295.3214	-34.5531	473.6992	-17.0203	178.211	29.4666	434.5812	-0.0592	0.0182	-0.0073	-0.0462	0.0165	0.9585
10.8608	33.0522	376.6697	27.9453	-138.4204	-4.4048	260.6026	-37.1286	499.3472	-21.0635	187.3635	33.8345	457.7152	-0.0592	0.0182	-0.0073	-0.0462	0.0165	0.9585
10.8737	29.6875	324.9538	23.2391	-119.2496	-2.774	225.3736	-38.3724	520.728	-24.1703	194.8207	36.7754	476.872	-0.0592	0.0182	-0.0073	-0.0462	0.0165	0.9585
10.8866	25.49	273.7355	18.9409	-100.346	-1.7005	190.3391	-38.9791	541.6612	-26.8714	201.9697	39.0721	495.6198	-0.0592	0.0182	-0.0073	-0.0462	0.0165	0.9585
10.8996	20.4101	224.2236	15.0139	-82.1191	-1.1892	156.3866	-39.5721	565.2658	-29.8809	209.9202	41.638	516.8381	-0.0592	0.0182	-0.0073	-0.0462	0.0165	0.9585
10.9125	14.6191	177.8476	11.4645	-65.0699	-1.1884	124.5271	-40.7043	593.2564	-33.8363	219.261	45.2723	542.1259	-0.0592	0.0182	-0.0073	-0.0462	0.0165	0.9585
10.9254	8.5531	136.0448	8.3564	-49.7111	-1.5806	95.7506	-42.7591	625.6441	-39.0533	229.9735	50.4151	571.497	-0.0592	0.0182	-0.0073	-0.0462	0.0165	0.9585
10.9384	2.8337	99.9442	5.7821	-36.4489	-2.1907	70.8244	-45.874	661.1028	-45.4192	241.5782	57.0172	603.7316	-0.0592	0.0182	-0.0073	-0.0462	0.0165	0.9585
10.9513	-1.8986	70.0573	3.795	-25.4737	-2.8076	50.0894	-49.8889	697.3729	-52.5064	253.2904	64.6325	636.7075	-0.0592	0.0182	-0.0073	-0.0462	0.0165	0.9585
10.9642	-5.2215	46.3207	2.3438	-16.7672	-3.2304	33.5259	-54.4353	731.735	-59.715	264.1838	72.5786	667.8718	-0.0592	0.0182	-0.0073	-0.0462	0.0165	0.9585
10.9771	-6.9755	28.2776	1.3224	-10.1652	-3.3249	20.8428	-59.0551	761.4457	-66.4301	273.3408	80.1284	694.648	-0.0592	0.0182	-0.0073	-0.0462	0.0165	0.9585
10.9901	-7.251	15.24	0.62835	-5.4134	-3.058	11.6086	-63.2866	784.1722	-72.1176	280.0022	86.6312	714.8323	-0.0592	0.0182	-0.0073	-0.0462	0.0165	0.9585
11.003	-6.3893	6.4149	0.17434	-2.2156	-2.5017	5.291	-66.7367	798.3932	-76.4078	283.6996	91.6127	726.9781	-0.0592	0.0182	-0.0073	-0.0462	0.0165	0.9585
11.0159	-4.9919	1.0468	-0.089251	-0.28302	-1.8424	1.3963	-69.0927	803.5921	-79.0825	284.3211	94.7679	730.5424	-0.0592	0.0182	-0.0073	-0.0462	0.0165	0.9585
11.0289	-3.4986	-1.7173	-0.20317	0.70079	-1.2228	-0.65467	-70.1914	800.3088	-80.0883	282.119	95.9914	725.9533	-0.0592	0.0182	-0.0073	-0.0462	0.0165	0.9585
11.0418	-2.1625	-2.7011	-0.21626	1.0377	-0.71391	-1.4261	-69.963	790.0086	-79.5125	277.6622	95.3367	714.4605	-0.0592	0.0182	-0.0073	-0.0462	0.0165	0.9585
11.0547	-1.097	-2.5988	-0.16928	0.97983	-0.33983	-1.4114	-68.4344	774.8424	-77.5801	271.7461	93.0129	697.938	-0.0592	0.0182	-0.0073	-0.0462	0.0165	0.9585
11.0676	-0.32632	-1.9279	-0.094659	0.71624	-0.094738	-0.97965	-65.6576	757.2946	-74.5665	265.2719	89.2804	678.5364	-0.0592	0.0182	-0.0073	-0.0462	0.0165	0.9585
11.0806	0.17543	-1.0376	-0.016059	0.3759	0.045156	-0.3723	-61.6974	739.863	-70.7663	259.1333	84.4197	658.4016	-0.0592	0.0182	-0.0073	-0.0462	0.0165	0.9585
11.0935	0.46303	-0.15259	0.05499	0.040518	0.10921	0.24453	-56.6231	724.7749	-66.4525	254.1187	78.6917	639.4301	-0.0592	0.0182	-0.0073	-0.0462	0.0165	0.9585
11.1064	0.58558	0.61143	0.11162	-0.24993	0.12247	0.78864	-50.4805	713.8436	-61.9213	250.8613	72.3735	623.1353	-0.0592	0.0182	-0.0073	-0.0462	0.0165	0.9585
11.1194	0.60595	1.2126	0.15931	-0.48144	0.10065	1.2279	-43.3633	708.4578	-57.4465	249.831	65.7309	610.686	-0.0592	0.0182	-0.0073	-0.0462	0.0165	0.9585
11.1323	0.56416	1.6588	0.193	-0.65531	0.063061	1.572	-35.4233	709.4794	-53.2811	251.2971	59.0332	602.8445	-0.0592	0.0182	-0.0073	-0.0462	0.0165	0.9585
11.1452	0.4896	1.9721	0.21577	-0.77956	0.019393	1.8334	-26.9657	717.1253	-49.621	255.2778	52.5507	599.9345	-0.0592	0.0182	-0.0073	-0.0462	0.0165	0.9585
11.1581	0.40154	2.1817	0.22546	-0.86453	-0.018315	2.0299	-18.4402	730.7513	-46.6582	261.4646	46.6013	601.6603	-0.0592	0.0182	-0.0073	-0.0462	0.0165	0.9585
11.1711	0.30491	2.3047	0.22702	-0.91546	-0.051489	2.1637	-10.4143	748.7769	-44.547	269.1955	41.5072	607.0624	-0.0592	0.0182	-0.0073	-0.0462	0.0165	0.9585
11.184	0.20013	2.334	0.22469	-0.92947	-0.085999	2.2079	-3.4571	768.8473	-43.3734	277.5284	37.5334	614.5997	-0.0592	0.0182	-0.0073	-0.0462	0.0165	0.9585
11.1969	0.072333	2.2482	0.22829	-0.89707	-0.13819	2.1395	2.0221	788.2527	-43.091	285.4118	34.7822	622.4078	-0.0592	0.0182	-0.0073	-0.0462	0.0165	0.9585
